<svg id="Layer_2" data-name="Layer 2" xmlns="http://www.w3.org/2000/svg" viewBox="0 0 1025 1025">
  <defs>
    <style>.cls-1{fill:#1258dc;stroke:#fff;stroke-miterlimit:10;}.cls-2{fill:#14336c;}.cls-3{fill:#fff;}</style>
  </defs>
  <rect class="cls-1" x="0.5" y="0.5" width="1024" height="1024" rx="53.54"/>
  <rect class="cls-2" x="484.94" y="471.23" width="55.25" height="110.49" rx="24.08"/>
  <path class="cls-3" d="M656.32,680c-15.32-27.74-37.56-44.18-61.47-45.64h-.14l-1.17-.07c-.27,0-.54,0-.81,0H430.88a19.28,19.28,0,0,0-2.42.17c-23.6,1.78-45.52,18.16-60.66,45.59C354,705.1,346.32,737.9,346.32,772.38c0,15.25,11.38,27.62,25.42,27.62s25.42-12.37,25.42-27.62c0-50.59,21.08-82.87,35.59-82.87H591.37c14.51,0,35.59,32.28,35.59,82.87,0,15.25,11.38,27.62,25.42,27.62s25.42-12.37,25.42-27.62C677.8,737.9,670.17,705.1,656.32,680Z" transform="translate(0.5 0.5)"/>
  <path class="cls-3" d="M611.4,313.88c17.06,60.2,67.17,103.81,126.34,103.81,73.23,0,132.59-66.78,132.59-149.16,0-4.82-.21-9.59-.6-14.29Z" transform="translate(0.5 0.5)"/>
  <rect class="cls-2" x="694.04" y="230.35" width="55.25" height="110.49" rx="24.08"/>
  <rect class="cls-2" x="542.53" y="222.61" width="397.22" height="64.2" transform="translate(-37.8 173.75) rotate(-13)"/>
  <path class="cls-3" d="M416.75,313.88c-17.06,60.2-67.17,103.81-126.34,103.81-73.23,0-132.6-66.78-132.6-149.16,0-4.82.22-9.59.61-14.29Z" transform="translate(0.5 0.5)"/>
  <rect class="cls-2" x="279.36" y="229.85" width="55.25" height="110.49" rx="24.08" transform="translate(614.46 570.7) rotate(-180)"/>
  <rect class="cls-2" x="88.4" y="222.61" width="397.22" height="64.2" transform="translate(509.87 567.96) rotate(-167)"/>
</svg>